<?xml version="1.0" encoding="UTF-8"?>
<svg viewBox="0 0 524.409425 372.0472375" xmlns="http://www.w3.org/2000/svg">
 <path d="m240 271.55c20 0 22.361-40 0-40h-140c-20 0-64.189-5.8114-80 10-10 10 0 30 20 30h200z" fill="#00c300" fill-rule="evenodd" stroke="#000"/>
 <path transform="matrix(.61598 0 0 .63366 46.975 78.72)" d="m491.43 226.15c0 86.82-90.696 157.28-202.45 157.28s-202.9-70.426-202.9-157.25c0-10.853 1.8718-21.486 4.5701-31.722s6.6776-20.11 11.802-29.518 8.8178-17.19 16.096-25.558 18.142-17.322 27.303-24.439 19.194-13.556 29.965-19.211 22.279-10.526 34.387-14.507 24.819-7.0728 37.994-9.1691 26.815-3.1973 40.784-3.1973c111.75 0 202.45 70.463 202.45 157.28z" fill="#0f0" fill-rule="evenodd" stroke="#000"/>
 <path d="m230 322.05s70 5 120-10 55-12.5 80-50 27.5-57.5 20-80-30-30-50-20c-19.235 9.6177-7.5 47.5-20 60s-30 0-30 0" fill="#0f0" fill-rule="evenodd" stroke="#000"/>
 <path d="m420 202.05c0-10 15-10 30-10s30 0 30 10-15 10-30 10-30 0-30-10z" fill="#00ba00" fill-rule="evenodd" stroke="#000"/>
 <path d="m270 272.05c-20 0-22.361-40 0-40h140c20 0 64.189-5.8114 80 10 10 10 0 30-20 30h-200z" fill="#00c300" fill-rule="evenodd" stroke="#000"/>
 <path d="m100 222.05h140c10 0 10-10 10-20s0-20-10-30-110-15-120-5c-20 20-20 55-20 55z" fill="#fff" fill-rule="evenodd" stroke="#000"/>
 <path d="m120 242.05c30 10 25 10 50 10s35-7.5 50-10 19.487-3.1623 10 0c-15 5-20 40-50 40-20 0-20-10-30-30l-30-10z" fill="#f00" fill-rule="evenodd" stroke="#000"/>
 <path d="m180 282.05c-7.9057 0-10-15-10-20s20-8.5355 20-5v15-15c0-5 5-5 10-5 0 0-0.69338-0.20994 5 0s12.855 1.5152 10 5.6202c-10 14.38-15 24.38-35 24.38z" fill="#e10000" fill-rule="evenodd" stroke="#000"/>
 <path transform="translate(10)" d="m150 197.05a10 15 0 1 1 -20 0 10 15 0 1 1 20 0z" stroke="#000"/>
 <path transform="matrix(1 0 0 1.4546 .60302 -63.352)" d="m155 177.05a5 5 0 1 1 -10 0 5 5 0 1 1 10 0z" fill="#fff" stroke="#000"/>
 <path transform="translate(44.5,-.5)" d="m150 197.05a10 15 0 1 1 -20 0 10 15 0 1 1 20 0z" stroke="#000"/>
 <path transform="matrix(1 0 0 1.4546 35.103 -63.852)" d="m155 177.05a5 5 0 1 1 -10 0 5 5 0 1 1 10 0z" fill="#fff" stroke="#000"/>
</svg>
